# xmcd CD database file
#
# Track frame offsets:
#	150
#	10326
#	21703
#	61543
#	85968
#	103637
#	127087
#	148697
#	175461
#	239330
#	261473
#	281623
#
# Disc length: 4065 seconds
#
# Revision: 0
# Processed by: cddbd v1.5.2PL0 Copyright (c) Steve Scherf et al.
# Submitted via: CDex 1.70beta2
#
DISCID=b20fdf0c
DTITLE=Steuart Liebig - Delta (Stigtette)
DYEAR=2005
DGENRE=Jazz
TTITLE0=Hector
TTITLE1=Kprs - Mahoning
TTITLE2=Kprs - Alchemy
TTITLE3=Kprs - Light Cloud, Dark Cloud
TTITLE4=Kprs - 1956-j no. 2
TTITLE5=Dynamite's Dionysian Dance
TTITLE6=Cold Green Mystery
TTITLE7=Our Lady Of The Illuminated Hand
TTITLE8=Seven Dreams About Time
TTITLE9=Render
TTITLE10=Secret One-Hand Shake
TTITLE11=Knowledge Is Gravity
EXTD=YEAR: 2005
EXTT0=
EXTT1=
EXTT2=
EXTT3=
EXTT4=
EXTT5=
EXTT6=
EXTT7=
EXTT8=
EXTT9=
EXTT10=
EXTT11=
PLAYORDER=
